{
    "accessors" : [
        {
            "bufferView" : 0,
            "componentType" : 5123,
            "count" : 135000,
            "max" : [
                24415
            ],
            "min" : [
                0
            ],
            "type" : "SCALAR"
        },
        {
            "bufferView" : 1,
            "componentType" : 5126,
            "count" : 24416,
            "max" : [
                0.6215099096298218,
                1.0281169414520264,
                5.7094950675964355
            ],
            "min" : [
                -0.5422711372375488,
                -1.0661208629608154,
                -5.3375396728515625
            ],
            "type" : "VEC3"
        },
        {
            "bufferView" : 2,
            "componentType" : 5126,
            "count" : 24416,
            "max" : [
                0.999969482421875,
                0.999969482421875,
                0.999755859375
            ],
            "min" : [
                -0.999969482421875,
                -0.999847412109375,
                -0.9983519911766052
            ],
            "type" : "VEC3"
        },
        {
            "bufferView" : 3,
            "componentType" : 5126,
            "count" : 24416,
            "max" : [
                0.9999903440475464,
                0.9998869299888611,
                0.9995418190956116,
                1.0
            ],
            "min" : [
                -0.9998770356178284,
                -0.9999744892120361,
                -0.9993900656700134,
                -1.0
            ],
            "type" : "VEC4"
        },
        {
            "bufferView" : 4,
            "componentType" : 5126,
            "count" : 24416,
            "max" : [
                0.7468540072441101,
                0.9995700000145007
            ],
            "min" : [
                0.0001289999927394092,
                0.0003420114517211914
            ],
            "type" : "VEC2"
        }
    ],
    "asset" : {
        "generator" : "Khronos Blender glTF 2.0 exporter",
        "version" : "2.0"
    },
    "bufferViews" : [
        {
            "buffer" : 0,
            "byteLength" : 270000,
            "byteOffset" : 0,
            "target" : 34963
        },
        {
            "buffer" : 0,
            "byteLength" : 292992,
            "byteOffset" : 270000,
            "target" : 34962
        },
        {
            "buffer" : 0,
            "byteLength" : 292992,
            "byteOffset" : 562992,
            "target" : 34962
        },
        {
            "buffer" : 0,
            "byteLength" : 390656,
            "byteOffset" : 855984,
            "target" : 34962
        },
        {
            "buffer" : 0,
            "byteLength" : 195328,
            "byteOffset" : 1246640,
            "target" : 34962
        }
    ],
    "buffers" : [
        {
            "byteLength" : 1441968,
            "uri" : "pipe.bin"
        }
    ],
    "images" : [
        {
            "name" : "pipe",
            "uri" : "pipe.jpg"
        }
    ],
    "materials" : [
        {
            "name" : "material_0",
            "pbrMetallicRoughness" : {
                "baseColorTexture" : {
                    "index" : 0
                },
                "metallicFactor" : 0.0
            }
        }
    ],
    "meshes" : [
        {
            "name" : "pipe",
            "primitives" : [
                {
                    "attributes" : {
                        "NORMAL" : 2,
                        "POSITION" : 1,
                        "TANGENT" : 3,
                        "TEXCOORD_0" : 4
                    },
                    "indices" : 0,
                    "material" : 0
                }
            ]
        }
    ],
    "nodes" : [
        {
            "name" : "Camera",
            "rotation" : [
                0.483536034822464,
                0.33687159419059753,
                -0.20870360732078552,
                0.7804827094078064
            ],
            "translation" : [
                7.481131553649902,
                5.34366512298584,
                6.5076398849487305
            ]
        },
        {
            "name" : "Lamp",
            "rotation" : [
                0.16907575726509094,
                0.7558802962303162,
                -0.27217137813568115,
                0.570947527885437
            ],
            "scale" : [
                1.0,
                1.0,
                0.9999999403953552
            ],
            "translation" : [
                4.076245307922363,
                5.903861999511719,
                -1.0054539442062378
            ]
        },
        {
            "mesh" : 0,
            "name" : "pipe",
            "rotation" : [
                -0.01825244165956974,
                0.7662749290466309,
                -0.6414977312088013,
                0.03114946000277996
            ],
            "translation" : [
                -0.05205891653895378,
                -0.11589391529560089,
                0.0030420850962400436
            ]
        }
    ],
    "samplers" : [
        {}
    ],
    "scene" : 0,
    "scenes" : [
        {
            "name" : "Scene",
            "nodes" : [
                2,
                1,
                0
            ]
        }
    ],
    "textures" : [
        {
            "sampler" : 0,
            "source" : 0
        }
    ]
}
